<svg xmlns="http://www.w3.org/2000/svg" version="1.1" xmlns:xlink="http://www.w3.org/1999/xlink" width="512" height="512"><svg width="512" height="512" viewBox="0 0 512 512" fill="none" xmlns="http://www.w3.org/2000/svg">
    <rect width="512" height="512" fill="#000000"></rect>
    
    <g stroke="#FFD60A" stroke-width="24" stroke-linecap="round" stroke-linejoin="round">
        <path d="M48 140V48H140"></path>
        <path d="M372 48H464V140"></path>
        <path d="M464 372V464H372"></path>
        <path d="M140 464H48V372"></path>
    </g>

    <g fill="#FFD60A">
        <path d="M256 150C197.455 150 150 197.455 150 256C150 314.545 197.455 362 256 362C314.545 362 362 314.545 362 256C362 197.455 314.545 150 256 150ZM256 330C215.131 330 182 296.869 182 256C182 215.131 215.131 182 256 182C296.869 182 330 215.131 330 256C330 296.869 296.869 330 256 330Z" fill-opacity="0.3"></path>
        <circle cx="256" cy="256" r="50"></circle>
    </g>
    
    <text x="256" y="420" fill="#FFD60A" font-family="monospace" font-weight="bold" font-size="40" text-anchor="middle" letter-spacing="4">AI VISION</text>
</svg><style>@media (prefers-color-scheme: light) { :root { filter: none; } }
@media (prefers-color-scheme: dark) { :root { filter: none; } }
</style></svg>